<svg width="1170" height="184" viewBox="0 0 1170 184" fill="none" xmlns="http://www.w3.org/2000/svg">
<path d="M414.31 33H409.019V11.6777H398.771V33H393.498V7.40625H414.31V33ZM418.906 23.3145C418.906 21.4277 419.269 19.7461 419.996 18.2695C420.722 16.793 421.765 15.6504 423.125 14.8418C424.496 14.0332 426.084 13.6289 427.888 13.6289C430.455 13.6289 432.546 14.4141 434.164 15.9844C435.793 17.5547 436.701 19.6875 436.888 22.3828L436.923 23.6836C436.923 26.6016 436.109 28.9453 434.48 30.7148C432.851 32.4727 430.666 33.3516 427.923 33.3516C425.181 33.3516 422.99 32.4727 421.349 30.7148C419.72 28.957 418.906 26.5664 418.906 23.543V23.3145ZM423.986 23.6836C423.986 25.4883 424.326 26.8711 425.005 27.832C425.685 28.7812 426.658 29.2559 427.923 29.2559C429.154 29.2559 430.115 28.7871 430.806 27.8496C431.498 26.9004 431.843 25.3887 431.843 23.3145C431.843 21.5449 431.498 20.1738 430.806 19.2012C430.115 18.2285 429.142 17.7422 427.888 17.7422C426.646 17.7422 425.685 18.2285 425.005 19.2012C424.326 20.1621 423.986 21.6562 423.986 23.6836ZM449.042 29.2559C449.98 29.2559 450.742 28.998 451.328 28.4824C451.914 27.9668 452.218 27.2812 452.242 26.4258H457.005C456.994 27.7148 456.642 28.8984 455.951 29.9766C455.259 31.043 454.31 31.875 453.103 32.4727C451.908 33.0586 450.584 33.3516 449.13 33.3516C446.412 33.3516 444.267 32.4902 442.697 30.7676C441.126 29.0332 440.341 26.6426 440.341 23.5957V23.2617C440.341 20.332 441.121 17.9941 442.679 16.248C444.238 14.502 446.376 13.6289 449.095 13.6289C451.474 13.6289 453.378 14.3086 454.808 15.668C456.25 17.0156 456.982 18.8145 457.005 21.0645H452.242C452.218 20.0801 451.914 19.2832 451.328 18.6738C450.742 18.0527 449.968 17.7422 449.007 17.7422C447.824 17.7422 446.927 18.1758 446.318 19.043C445.72 19.8984 445.421 21.293 445.421 23.2266V23.7539C445.421 25.7109 445.72 27.1172 446.318 27.9727C446.916 28.8281 447.824 29.2559 449.042 29.2559ZM476.771 18.0586H470.671V33H465.574V18.0586H459.58V13.9805H476.771V18.0586ZM479.099 23.3145C479.099 21.4277 479.462 19.7461 480.189 18.2695C480.915 16.793 481.958 15.6504 483.318 14.8418C484.689 14.0332 486.277 13.6289 488.081 13.6289C490.648 13.6289 492.74 14.4141 494.357 15.9844C495.986 17.5547 496.894 19.6875 497.081 22.3828L497.117 23.6836C497.117 26.6016 496.302 28.9453 494.673 30.7148C493.044 32.4727 490.859 33.3516 488.117 33.3516C485.374 33.3516 483.183 32.4727 481.542 30.7148C479.913 28.957 479.099 26.5664 479.099 23.543V23.3145ZM484.179 23.6836C484.179 25.4883 484.519 26.8711 485.199 27.832C485.878 28.7812 486.851 29.2559 488.117 29.2559C489.347 29.2559 490.308 28.7871 490.999 27.8496C491.691 26.9004 492.036 25.3887 492.036 23.3145C492.036 21.5449 491.691 20.1738 490.999 19.2012C490.308 18.2285 489.335 17.7422 488.081 17.7422C486.839 17.7422 485.878 18.2285 485.199 19.2012C484.519 20.1621 484.179 21.6562 484.179 23.6836ZM517.181 13.9805V33H512.118V26.4258H508.902L505.245 33H500.095L504.243 25.5645C503.107 25.0371 502.228 24.3223 501.607 23.4199C500.997 22.5176 500.693 21.4922 500.693 20.3438C500.693 18.5039 501.402 16.998 502.82 15.8262C504.249 14.6426 506.159 14.0273 508.55 13.9805H517.181ZM508.638 22.875H512.118V18.0586H508.814C507.911 18.0586 507.179 18.2988 506.616 18.7793C506.054 19.248 505.773 19.8223 505.773 20.502C505.773 21.1816 506.042 21.7441 506.581 22.1895C507.12 22.6348 507.806 22.8633 508.638 22.875ZM539.038 33H533.941V25.6875H527.63V33H522.55V13.9805H527.63V21.6094H533.941V13.9805H539.038V33ZM560.544 33H555.446V25.6875H549.136V33H544.056V13.9805H549.136V21.6094H555.446V13.9805H560.544V33ZM570.993 19.5527H574.632C576.272 19.5527 577.714 19.8281 578.956 20.3789C580.198 20.9297 581.147 21.7207 581.804 22.752C582.472 23.7715 582.806 24.9609 582.806 26.3203C582.806 28.3242 582.062 29.9414 580.573 31.1719C579.097 32.3906 577.081 33 574.526 33H565.896V13.9805H570.993V19.5527ZM590.892 33H585.812V13.9805H590.892V33ZM570.993 23.6309V28.9395H574.597C575.605 28.9395 576.378 28.7051 576.917 28.2363C577.456 27.7676 577.726 27.1289 577.726 26.3203C577.726 25.5 577.462 24.8496 576.935 24.3691C576.407 23.877 575.628 23.6309 574.597 23.6309H570.993ZM605.208 33.3516C602.419 33.3516 600.145 32.4961 598.388 30.7852C596.642 29.0742 595.769 26.7949 595.769 23.9473V23.4551C595.769 21.5449 596.138 19.8398 596.876 18.3398C597.614 16.8281 598.657 15.668 600.005 14.8594C601.364 14.0391 602.911 13.6289 604.645 13.6289C607.247 13.6289 609.292 14.4492 610.78 16.0898C612.28 17.7305 613.03 20.0566 613.03 23.0684V25.1426H600.919C601.083 26.3848 601.575 27.3809 602.395 28.1309C603.227 28.8809 604.276 29.2559 605.542 29.2559C607.499 29.2559 609.028 28.5469 610.13 27.1289L612.626 29.9238C611.864 31.002 610.833 31.8457 609.532 32.4551C608.231 33.0527 606.79 33.3516 605.208 33.3516ZM604.628 17.7422C603.62 17.7422 602.8 18.082 602.167 18.7617C601.546 19.4414 601.147 20.4141 600.972 21.6797H608.038V21.2754C608.015 20.1504 607.71 19.2832 607.124 18.6738C606.538 18.0527 605.706 17.7422 604.628 17.7422ZM634.509 25.9863H632.47V33H627.389V13.9805H632.47V21.1348H634.28L638.429 13.9805H644.845L638.622 23.0332L645.425 33H638.657L634.509 25.9863ZM664.962 13.9805V33H659.882V18.0938H655.399L655.083 23.9648C654.884 27.0938 654.268 29.373 653.237 30.8027C652.206 32.2324 650.671 32.9648 648.632 33H646.909L646.856 28.8691L647.489 28.8164C648.403 28.7461 649.071 28.207 649.493 27.1992C649.915 26.1914 650.178 24.4746 650.284 22.0488L650.635 13.9805H664.962ZM681.422 13.9805H686.503V33H681.422V21.2578L675.059 33H669.962V13.9805H675.059V25.7051L681.422 13.9805ZM700.221 33.3516C697.432 33.3516 695.159 32.4961 693.401 30.7852C691.655 29.0742 690.782 26.7949 690.782 23.9473V23.4551C690.782 21.5449 691.151 19.8398 691.889 18.3398C692.628 16.8281 693.67 15.668 695.018 14.8594C696.378 14.0391 697.924 13.6289 699.659 13.6289C702.26 13.6289 704.305 14.4492 705.794 16.0898C707.294 17.7305 708.044 20.0566 708.044 23.0684V25.1426H695.932C696.096 26.3848 696.588 27.3809 697.409 28.1309C698.241 28.8809 699.29 29.2559 700.555 29.2559C702.512 29.2559 704.042 28.5469 705.143 27.1289L707.639 29.9238C706.878 31.002 705.846 31.8457 704.545 32.4551C703.245 33.0527 701.803 33.3516 700.221 33.3516ZM699.641 17.7422C698.633 17.7422 697.813 18.082 697.18 18.7617C696.559 19.4414 696.161 20.4141 695.985 21.6797H703.051V21.2754C703.028 20.1504 702.723 19.2832 702.137 18.6738C701.551 18.0527 700.719 17.7422 699.641 17.7422ZM728.512 33H723.415V25.6875H717.104V33H712.024V13.9805H717.104V21.6094H723.415V13.9805H728.512V33ZM749.315 18.0586H743.215V33H738.118V18.0586H732.123V13.9805H749.315V18.0586ZM758.393 19.5527H762.032C763.672 19.5527 765.114 19.8281 766.356 20.3789C767.598 20.9297 768.547 21.7207 769.203 22.752C769.871 23.7715 770.205 24.9609 770.205 26.3203C770.205 28.3242 769.461 29.9414 767.973 31.1719C766.496 32.3906 764.481 33 761.926 33H753.295V13.9805H758.393V19.5527ZM778.291 33H773.211V13.9805H778.291V33ZM758.393 23.6309V28.9395H761.996C763.004 28.9395 763.778 28.7051 764.317 28.2363C764.856 27.7676 765.125 27.1289 765.125 26.3203C765.125 25.5 764.862 24.8496 764.334 24.3691C763.807 23.877 763.028 23.6309 761.996 23.6309H758.393Z" fill="#212121"/>
<rect x="0.5" y="92.5" width="169" height="91" rx="3.5" stroke="#AFB1B8"/>
<path fill-rule="evenodd" clip-rule="evenodd" d="M70 115L77.0078 121.634L64 121.626V153.814H98V141.507L105 148.134V115H70ZM97.6924 140.728L77.8226 121.918H97.6924V140.728ZM91.5231 149.106H69.3801V127.458H70.9453V147.64H91.5231V149.106ZM74.6089 158.099L73.791 159.784L72.9731 158.099H72.2871L73.481 160.345V161.654H74.1011V160.345L75.2925 158.099H74.6089ZM75.6367 161.654L75.9248 160.826H77.3018L77.5923 161.654H78.2368L76.8916 158.099H76.3374L74.9946 161.654H75.6367ZM76.6133 158.854L77.1284 160.328H76.0981L76.6133 158.854ZM79.8701 160.243C79.7806 160.379 79.7358 160.53 79.7358 160.694C79.7358 160.994 79.8408 161.237 80.0508 161.424C80.2624 161.61 80.5439 161.703 80.8955 161.703C81.2471 161.703 81.5498 161.607 81.8037 161.417L82.0039 161.654H82.6924L82.1699 161.036C82.375 160.756 82.4775 160.397 82.4775 159.959H81.9624C81.9624 160.199 81.9128 160.416 81.8135 160.611L81.1274 159.801L81.3691 159.625C81.54 159.501 81.6629 159.378 81.7378 159.254C81.8127 159.129 81.8501 158.992 81.8501 158.844C81.8501 158.619 81.7671 158.431 81.6011 158.28C81.4367 158.127 81.2251 158.05 80.9663 158.05C80.6798 158.05 80.452 158.132 80.2827 158.294C80.1134 158.456 80.0288 158.675 80.0288 158.954C80.0288 159.068 80.0557 159.186 80.1094 159.308C80.1647 159.43 80.2616 159.578 80.3999 159.752C80.1362 159.941 79.9596 160.104 79.8701 160.243ZM81.4741 161.029C81.3 161.162 81.1128 161.229 80.9126 161.229C80.7352 161.229 80.5936 161.178 80.4878 161.075C80.382 160.973 80.3291 160.839 80.3291 160.675C80.3291 160.484 80.4268 160.315 80.6221 160.167L80.6978 160.113L81.4741 161.029ZM80.8369 159.454C80.6693 159.247 80.5854 159.076 80.5854 158.939C80.5854 158.82 80.6196 158.722 80.688 158.644C80.7563 158.565 80.8483 158.526 80.9639 158.526C81.0713 158.526 81.16 158.56 81.23 158.626C81.3 158.692 81.335 158.771 81.335 158.863C81.335 159.003 81.2845 159.118 81.1836 159.208L81.1079 159.269L80.8369 159.454ZM86.623 161.385C86.8672 161.172 87.0072 160.876 87.043 160.497H86.4277C86.3952 160.75 86.3179 160.932 86.1958 161.041C86.0737 161.15 85.8914 161.205 85.6489 161.205C85.3836 161.205 85.1818 161.104 85.0435 160.902C84.9067 160.7 84.8384 160.407 84.8384 160.023V159.708C84.8416 159.329 84.9149 159.042 85.0581 158.846C85.203 158.649 85.4097 158.551 85.6782 158.551C85.9093 158.551 86.0843 158.608 86.2031 158.722C86.3236 158.834 86.3984 159.018 86.4277 159.273H87.043C87.0039 158.884 86.8647 158.583 86.6255 158.37C86.3862 158.157 86.0705 158.05 85.6782 158.05C85.3869 158.05 85.1297 158.119 84.9067 158.258C84.6854 158.396 84.5153 158.593 84.3965 158.849C84.2777 159.104 84.2183 159.4 84.2183 159.735V160.067C84.2231 160.394 84.2842 160.681 84.4014 160.929C84.5186 161.176 84.6846 161.367 84.8994 161.502C85.1159 161.636 85.3657 161.703 85.6489 161.703C86.0542 161.703 86.3789 161.597 86.623 161.385ZM90.2534 160.887C90.3739 160.624 90.4341 160.318 90.4341 159.969V159.771C90.4325 159.425 90.3706 159.121 90.2485 158.861C90.1265 158.599 89.9531 158.399 89.7285 158.26C89.5055 158.12 89.2492 158.05 88.9595 158.05C88.6698 158.05 88.4126 158.121 88.188 158.263C87.965 158.403 87.7917 158.605 87.668 158.871C87.5459 159.136 87.4849 159.442 87.4849 159.789V159.989C87.4865 160.329 87.5483 160.629 87.6704 160.89C87.7941 161.15 87.9683 161.351 88.1929 161.493C88.4191 161.633 88.6763 161.703 88.9644 161.703C89.2557 161.703 89.5129 161.633 89.7358 161.493C89.9604 161.351 90.133 161.149 90.2534 160.887ZM89.5918 158.878C89.7415 159.088 89.8164 159.39 89.8164 159.784V159.969C89.8164 160.37 89.7423 160.674 89.5942 160.882C89.4478 161.091 89.2378 161.195 88.9644 161.195C88.6942 161.195 88.4826 161.088 88.3296 160.875C88.1782 160.662 88.1025 160.36 88.1025 159.969V159.764C88.1058 159.382 88.1823 159.086 88.332 158.878C88.4834 158.668 88.6925 158.563 88.9595 158.563C89.2329 158.563 89.4437 158.668 89.5918 158.878Z" fill="#AFB1B8"/>
<rect x="200.5" y="92.5" width="169" height="91" rx="3.5" stroke="#AFB1B8"/>
<path fill-rule="evenodd" clip-rule="evenodd" d="M282.114 113.935H281.977C281.767 113.922 281.557 113.917 281.347 113.912H281.347H281.327H280.892C280.495 113.912 280.09 113.922 279.688 113.942C279.657 113.94 279.627 113.94 279.597 113.942C275.952 114.149 272.382 115.06 269.08 116.625L268.648 116.833V138.975L269.66 138.631C270.548 138.326 271.494 138.051 272.473 137.797C275.119 137.118 277.837 136.757 280.568 136.722V139.631C280.206 139.633 279.855 139.643 279.503 139.661H279.419C277.318 139.776 275.232 140.097 273.191 140.617C270.607 141.264 268.114 142.236 265.772 143.509V115.112C268.205 113.693 270.825 112.627 273.556 111.946C275.953 111.327 278.417 111.009 280.892 111H281.319C281.83 111.013 282.329 111.036 282.797 111.071C284.03 111.158 285.253 111.353 286.452 111.654V114.517C285.287 114.246 284.103 114.067 282.91 113.983C282.886 113.981 282.862 113.979 282.838 113.977C282.591 113.956 282.344 113.935 282.114 113.935ZM287.153 116.861C287.788 116.91 288.445 116.933 289.111 116.933C291.713 116.923 294.303 116.591 296.824 115.943C299.407 115.294 301.899 114.322 304.241 113.05V140.94C301.807 142.358 299.185 143.424 296.455 144.106C294.057 144.723 291.593 145.04 289.118 145.05C287.243 145.065 285.374 144.844 283.553 144.393V116.322C283.983 116.421 284.426 116.513 284.876 116.589C285.615 116.714 286.394 116.805 287.153 116.861ZM301.347 117.078L300.335 117.418C299.404 117.731 298.466 118.011 297.522 118.26C294.775 118.966 291.951 119.328 289.116 119.338C288.456 119.338 287.848 119.32 287.262 119.282L286.455 119.229V139.318V142.006L287.148 142.067C287.79 142.123 288.453 142.151 289.121 142.151C291.354 142.141 293.578 141.853 295.741 141.294C297.522 140.847 299.255 140.224 300.914 139.435L301.347 139.226V117.078Z" fill="#AFB1B8"/>
<path d="M267.737 153.212C267.592 153.062 267.416 152.943 267.222 152.865C267.028 152.786 266.82 152.75 266.611 152.757C266.389 152.754 266.168 152.796 265.961 152.879C265.772 152.955 265.6 153.068 265.455 153.212C265.312 153.357 265.201 153.53 265.129 153.721C265.05 153.921 265.01 154.134 265.013 154.349V158.143C265.004 158.41 265.055 158.676 265.162 158.921C265.251 159.116 265.381 159.289 265.541 159.43C265.693 159.557 265.871 159.65 266.062 159.699C266.247 159.751 266.438 159.778 266.629 159.778C266.84 159.78 267.05 159.735 267.241 159.646C267.431 159.563 267.603 159.444 267.747 159.295C267.888 159.148 268.001 158.975 268.079 158.786C268.16 158.595 268.201 158.389 268.2 158.181V157.757H267.208V158.095C267.211 158.21 267.192 158.325 267.15 158.433C267.118 158.514 267.069 158.587 267.006 158.647C266.945 158.696 266.874 158.733 266.799 158.756C266.732 158.778 266.662 158.79 266.591 158.792C266.503 158.802 266.413 158.788 266.331 158.753C266.249 158.717 266.179 158.66 266.126 158.588C266.032 158.436 265.986 158.258 265.994 158.08V154.542C265.988 154.346 266.03 154.151 266.116 153.975C266.167 153.895 266.24 153.831 266.326 153.791C266.412 153.75 266.507 153.735 266.601 153.746C266.687 153.743 266.772 153.761 266.849 153.798C266.926 153.836 266.993 153.891 267.044 153.96C267.155 154.106 267.213 154.285 267.208 154.469V154.797H268.19V154.41C268.192 154.183 268.151 153.958 268.069 153.746C267.995 153.548 267.883 153.366 267.737 153.212V153.212Z" fill="#AFB1B8"/>
<path d="M273.629 153.169C273.313 152.902 272.914 152.755 272.501 152.752C272.299 152.753 272.098 152.789 271.909 152.859C271.716 152.928 271.538 153.033 271.385 153.169C271.221 153.317 271.09 153.498 271.001 153.701C270.901 153.932 270.851 154.183 270.856 154.435V158.074C270.85 158.33 270.899 158.585 271.001 158.819C271.09 159.015 271.222 159.189 271.385 159.328C271.537 159.469 271.715 159.578 271.909 159.648C272.098 159.718 272.299 159.754 272.501 159.755C272.703 159.755 272.903 159.719 273.093 159.648C273.29 159.577 273.472 159.468 273.629 159.328C273.787 159.186 273.915 159.013 274.003 158.819C274.105 158.585 274.154 158.33 274.148 158.074V154.435C274.152 154.183 274.103 153.932 274.003 153.701C273.915 153.5 273.788 153.319 273.629 153.169V153.169ZM273.166 158.074C273.174 158.171 273.161 158.269 273.127 158.36C273.093 158.451 273.039 158.533 272.969 158.601C272.838 158.711 272.673 158.771 272.502 158.771C272.331 158.771 272.166 158.711 272.035 158.601C271.965 158.533 271.911 158.451 271.877 158.36C271.843 158.269 271.83 158.171 271.838 158.074V154.435C271.83 154.338 271.843 154.241 271.877 154.15C271.911 154.059 271.965 153.976 272.035 153.909C272.166 153.799 272.331 153.739 272.502 153.739C272.673 153.739 272.838 153.799 272.969 153.909C273.039 153.976 273.093 154.059 273.127 154.15C273.161 154.241 273.174 154.338 273.166 154.435V158.074Z" fill="#AFB1B8"/>
<path d="M281.367 159.699V152.811H280.414L279.161 156.457H279.144L277.881 152.811H276.938V159.699H277.922V155.509H277.94L278.903 158.471H279.394L280.366 155.509H280.383V159.699H281.367Z" fill="#AFB1B8"/>
<path d="M286.958 153.294C286.807 153.124 286.615 152.994 286.402 152.917C286.171 152.842 285.93 152.806 285.688 152.811H284.226V159.699H285.207V157.009H285.713C286.02 157.023 286.324 156.958 286.599 156.821C286.822 156.697 287.008 156.515 287.138 156.294C287.251 156.111 287.328 155.907 287.363 155.694C287.401 155.435 287.419 155.173 287.416 154.911C287.425 154.58 287.393 154.249 287.32 153.927C287.254 153.688 287.13 153.471 286.958 153.294V153.294ZM286.452 155.394C286.448 155.519 286.417 155.641 286.361 155.753C286.305 155.859 286.216 155.943 286.108 155.994C285.963 156.059 285.804 156.089 285.645 156.081H285.197V153.739H285.703C285.856 153.731 286.008 153.761 286.146 153.825C286.248 153.883 286.328 153.972 286.376 154.079C286.43 154.2 286.459 154.331 286.462 154.463C286.462 154.608 286.462 154.761 286.462 154.921C286.462 155.081 286.472 155.247 286.462 155.394H286.452Z" fill="#AFB1B8"/>
<path d="M291.608 152.811H290.803L289.285 159.699H290.267L290.555 158.219H291.894L292.182 159.699H293.163L291.608 152.811ZM290.702 157.281L291.185 154.784H291.203L291.684 157.281H290.702Z" fill="#AFB1B8"/>
<path d="M297.95 156.961H297.932L296.45 152.811H295.506V159.699H296.488V155.557H296.508L298.008 159.699H298.931V152.811H297.95V156.961Z" fill="#AFB1B8"/>
<path d="M303.948 152.811L303.158 155.549H303.138L302.349 152.811H301.309L302.657 156.788V159.699H303.639V156.788L304.987 152.811H303.948Z" fill="#AFB1B8"/>
<path d="M265 161.645H265.473V162.972H265.794V161.645H266.265V161.372H265V161.645Z" fill="#AFB1B8"/>
<path d="M268.977 161.372L268.357 162.972H268.698L268.83 162.608H269.467L269.604 162.972H269.953L269.318 161.372H268.977ZM268.926 162.339L269.144 161.746L269.361 162.339H268.926Z" fill="#AFB1B8"/>
<path d="M272.908 162.382H273.277V162.588C273.169 162.675 273.036 162.722 272.898 162.723C272.833 162.726 272.769 162.715 272.71 162.688C272.651 162.661 272.599 162.621 272.559 162.57C272.474 162.449 272.432 162.302 272.44 162.153C272.44 161.797 272.594 161.619 272.9 161.619C272.981 161.611 273.062 161.632 273.128 161.679C273.194 161.726 273.242 161.795 273.262 161.874L273.578 161.813C273.51 161.5 273.285 161.342 272.9 161.342C272.695 161.337 272.495 161.41 272.341 161.548C272.261 161.628 272.198 161.724 272.159 161.83C272.119 161.936 272.103 162.05 272.111 162.163C272.102 162.382 272.175 162.597 272.316 162.764C272.394 162.844 272.489 162.907 272.594 162.947C272.699 162.988 272.811 163.005 272.923 162.998C273.173 163.004 273.417 162.913 273.601 162.743V162.113H272.908V162.382Z" fill="#AFB1B8"/>
<path d="M276.923 161.372H276.599V162.972H277.719V162.7H276.923V161.372Z" fill="#AFB1B8"/>
<path d="M280.317 161.372H279.994V162.972H280.317V161.372Z" fill="#AFB1B8"/>
<path d="M283.636 162.44L282.981 161.372H282.668V162.972H282.969V161.927L283.611 162.972H283.932V161.372H283.636V162.44Z" fill="#AFB1B8"/>
<path d="M286.637 162.268H287.434V161.995H286.637V161.645H287.494V161.372H286.313V162.972H287.527V162.7H286.637V162.268Z" fill="#AFB1B8"/>
<path d="M293.912 162.003H293.282V161.372H292.961V162.972H293.282V162.273H293.912V162.972H294.234V161.372H293.912V162.003Z" fill="#AFB1B8"/>
<path d="M296.93 162.268H297.73V161.995H296.93V161.645H297.79V161.372H296.609V162.972H297.821V162.7H296.93V162.268Z" fill="#AFB1B8"/>
<path d="M301.023 162.268C301.302 162.224 301.443 162.077 301.443 161.823C301.451 161.755 301.441 161.686 301.413 161.623C301.386 161.56 301.342 161.506 301.286 161.467C301.141 161.394 300.98 161.361 300.818 161.373H300.14V162.972H300.462V162.303H300.525C300.593 162.299 300.662 162.311 300.725 162.339C300.772 162.368 300.811 162.408 300.839 162.456L301.188 162.964H301.572L301.377 162.652C301.291 162.497 301.17 162.366 301.023 162.268V162.268ZM300.699 162.046H300.462V161.645H300.715C300.825 161.636 300.936 161.649 301.041 161.683C301.064 161.703 301.083 161.729 301.095 161.758C301.107 161.787 301.113 161.818 301.111 161.849C301.11 161.88 301.101 161.911 301.087 161.938C301.072 161.966 301.051 161.99 301.026 162.008C300.92 162.041 300.81 162.054 300.699 162.046V162.046Z" fill="#AFB1B8"/>
<path d="M304.11 162.268H304.906V161.995H304.11V161.645H304.97V161.372H303.786V162.972H305V162.7H304.11V162.268Z" fill="#AFB1B8"/>
<rect x="400.5" y="92.5" width="169" height="91" rx="3.5" stroke="#AFB1B8"/>
<path d="M468.406 157.101C468.422 157.102 468.438 157.105 468.452 157.111C468.467 157.116 468.48 157.124 468.491 157.135L468.709 157.343C468.54 157.512 468.33 157.647 468.095 157.739C467.82 157.839 467.524 157.888 467.226 157.881C466.945 157.886 466.667 157.841 466.408 157.748C466.174 157.663 465.964 157.536 465.792 157.374C465.616 157.206 465.48 157.01 465.393 156.796C465.298 156.557 465.251 156.307 465.254 156.054C465.251 155.8 465.301 155.548 465.404 155.31C465.5 155.095 465.643 154.899 465.827 154.732C466.013 154.569 466.236 154.441 466.481 154.355C466.75 154.265 467.036 154.22 467.324 154.223C467.591 154.217 467.857 154.258 468.106 154.344C468.322 154.425 468.521 154.538 468.692 154.678L468.51 154.9C468.497 154.916 468.482 154.93 468.463 154.941C468.442 154.954 468.416 154.959 468.39 154.957C468.362 154.956 468.334 154.947 468.311 154.934L468.213 154.874L468.076 154.799C468.017 154.77 467.956 154.746 467.894 154.725C467.813 154.7 467.73 154.68 467.646 154.666C467.539 154.649 467.43 154.641 467.321 154.642C467.114 154.64 466.908 154.674 466.716 154.742C466.537 154.805 466.375 154.9 466.241 155.021C466.105 155.15 466.001 155.302 465.933 155.467C465.857 155.655 465.819 155.854 465.822 156.054C465.818 156.257 465.856 156.459 465.933 156.651C466 156.815 466.103 156.965 466.236 157.094C466.361 157.215 466.516 157.309 466.689 157.369C466.867 157.433 467.058 157.465 467.25 157.464C467.361 157.465 467.473 157.459 467.583 157.445C467.763 157.426 467.935 157.372 468.087 157.286C468.164 157.242 468.236 157.193 468.303 157.139C468.331 157.116 468.368 157.103 468.406 157.101V157.101Z" fill="#AFB1B8"/>
<path d="M474.704 156.054C474.708 156.305 474.658 156.555 474.557 156.791C474.468 157.004 474.328 157.199 474.146 157.363C473.965 157.526 473.745 157.654 473.502 157.738C472.968 157.915 472.378 157.915 471.844 157.738C471.603 157.653 471.385 157.524 471.204 157.362C471.022 157.195 470.881 156.999 470.789 156.783C470.593 156.306 470.593 155.785 470.789 155.308C470.882 155.092 471.023 154.895 471.204 154.727C471.386 154.569 471.604 154.446 471.844 154.365C472.377 154.185 472.969 154.185 473.502 154.365C473.744 154.45 473.963 154.578 474.145 154.741C474.325 154.906 474.465 155.1 474.557 155.312C474.658 155.55 474.708 155.801 474.704 156.054ZM474.132 156.054C474.136 155.853 474.101 155.652 474.028 155.462C473.967 155.298 473.868 155.147 473.736 155.019C473.609 154.897 473.451 154.801 473.276 154.739C472.888 154.609 472.458 154.609 472.071 154.739C471.895 154.801 471.738 154.897 471.61 155.019C471.477 155.146 471.376 155.297 471.315 155.462C471.177 155.847 471.177 156.26 471.315 156.646C471.377 156.81 471.477 156.961 471.61 157.089C471.738 157.21 471.895 157.305 472.071 157.366C472.459 157.493 472.887 157.493 473.276 157.366C473.451 157.305 473.608 157.21 473.736 157.089C473.867 156.96 473.966 156.809 474.028 156.646C474.101 156.455 474.136 156.255 474.132 156.054V156.054Z" fill="#AFB1B8"/>
<path d="M479.001 156.675L479.059 156.807C479.08 156.76 479.099 156.717 479.121 156.675C479.142 156.63 479.166 156.587 479.192 156.544L480.585 154.344C480.613 154.306 480.637 154.282 480.664 154.275C480.701 154.265 480.74 154.261 480.779 154.263H481.191V157.843H480.703V155.211C480.703 155.178 480.703 155.14 480.703 155.099C480.7 155.058 480.7 155.017 480.703 154.976L479.301 157.208C479.283 157.241 479.255 157.269 479.219 157.289C479.183 157.309 479.142 157.319 479.099 157.319H479.02C478.978 157.32 478.936 157.309 478.9 157.289C478.865 157.27 478.836 157.241 478.819 157.208L477.376 154.962C477.376 155.005 477.376 155.047 477.376 155.09C477.376 155.133 477.376 155.171 477.376 155.204V157.835H476.905V154.263H477.316C477.355 154.261 477.394 154.265 477.431 154.275C477.465 154.29 477.492 154.314 477.507 154.344L478.93 156.547C478.958 156.588 478.982 156.63 479.001 156.675V156.675Z" fill="#AFB1B8"/>
<path d="M484.244 156.497V157.838H483.699V154.263H484.915C485.145 154.259 485.373 154.286 485.594 154.341C485.77 154.385 485.934 154.461 486.074 154.564C486.195 154.661 486.288 154.781 486.346 154.915C486.411 155.06 486.442 155.216 486.439 155.372C486.441 155.528 486.407 155.684 486.338 155.829C486.273 155.966 486.172 156.088 486.044 156.187C485.904 156.294 485.739 156.375 485.561 156.423C485.349 156.482 485.127 156.51 484.904 156.506L484.244 156.497ZM484.244 156.113H484.904C485.047 156.115 485.19 156.096 485.327 156.059C485.439 156.026 485.543 155.973 485.632 155.905C485.714 155.839 485.777 155.758 485.817 155.668C485.862 155.572 485.884 155.47 485.883 155.367C485.889 155.268 485.871 155.168 485.828 155.076C485.786 154.983 485.721 154.9 485.637 154.832C485.429 154.69 485.168 154.622 484.904 154.64H484.244V156.113Z" fill="#AFB1B8"/>
<path d="M491.573 157.842H491.142C491.099 157.844 491.057 157.832 491.022 157.809C490.991 157.787 490.967 157.758 490.951 157.726L490.581 156.862H488.718L488.334 157.726C488.32 157.758 488.296 157.786 488.266 157.807C488.231 157.831 488.188 157.844 488.143 157.842H487.712L489.348 154.263H489.915L491.573 157.842ZM488.874 156.513H490.412L489.763 155.056C489.713 154.947 489.672 154.834 489.64 154.72L489.577 154.907C489.558 154.964 489.536 155.016 489.517 155.059L488.874 156.513Z" fill="#AFB1B8"/>
<path d="M493.929 154.279C493.961 154.295 493.989 154.317 494.011 154.343L496.396 157.042C496.396 156.999 496.396 156.956 496.396 156.916C496.396 156.876 496.396 156.836 496.396 156.798V154.263H496.884V157.842H496.612C496.573 157.843 496.534 157.836 496.5 157.821C496.466 157.804 496.436 157.782 496.413 157.755L494.03 155.059C494.032 155.1 494.032 155.141 494.03 155.182C494.03 155.222 494.03 155.258 494.03 155.291V157.842H493.542V154.263H493.831C493.864 154.262 493.898 154.268 493.929 154.279V154.279Z" fill="#AFB1B8"/>
<path d="M500.903 156.419V157.84H500.358V156.419L498.85 154.263H499.338C499.38 154.261 499.422 154.272 499.455 154.294C499.485 154.317 499.51 154.344 499.529 154.374L500.472 155.765C500.51 155.824 500.543 155.879 500.57 155.931C500.598 155.983 500.619 156.033 500.639 156.082L500.709 155.928C500.736 155.872 500.767 155.818 500.802 155.765L501.732 154.365C501.751 154.337 501.775 154.311 501.803 154.289C501.835 154.265 501.877 154.252 501.92 154.254H502.413L500.903 156.419Z" fill="#AFB1B8"/>
<path d="M478.731 148.256C478.969 148.282 479.208 148.304 479.451 148.322C483.13 146.893 486.242 144.552 488.399 141.594C490.555 138.636 491.66 135.191 491.576 131.69L487.521 128.168C488.346 131.895 487.96 135.748 486.408 139.296C484.855 142.844 482.197 145.946 478.731 148.256V148.256Z" fill="#AFB1B8"/>
<path d="M477.284 148.092L477.393 148.111C481.097 145.809 483.92 142.595 485.499 138.884C487.078 135.173 487.339 131.135 486.248 127.294L480.474 122.277C482.809 126.401 483.749 131.016 483.185 135.586C482.62 140.156 480.574 144.493 477.284 148.092V148.092Z" fill="#AFB1B8"/>
<path d="M496.868 135.827C495.887 139.673 493.504 143.142 490.073 145.719C489.072 146.476 487.991 147.15 486.845 147.732C489.639 147.019 492.206 145.758 494.35 144.046C496.494 142.334 498.157 140.217 499.21 137.859L496.868 135.827Z" fill="#AFB1B8"/>
<path d="M495.949 135.26L492.615 132.363C492.551 135.666 491.47 138.894 489.485 141.711C487.499 144.529 484.681 146.833 481.324 148.384H481.341C482.089 148.383 482.836 148.345 483.579 148.268C486.716 147.155 489.488 145.385 491.646 143.115C493.805 140.846 495.283 138.147 495.949 135.26V135.26Z" fill="#AFB1B8"/>
<path d="M477.766 120.161L473.788 116.7C470.232 117.894 467.174 119.993 465.013 122.722C462.853 125.451 461.691 128.684 461.68 131.996V131.996C461.693 135.656 463.111 139.208 465.709 142.089C468.307 144.97 471.937 147.016 476.024 147.903C479.672 144.041 481.809 139.269 482.122 134.28C482.435 129.291 480.909 124.345 477.766 120.161V120.161Z" fill="#AFB1B8"/>
<path d="M505.14 134.727C505.126 130.385 503.134 126.224 499.6 123.153C496.065 120.083 491.276 118.352 486.278 118.339V118.339C483.969 118.337 481.679 118.708 479.525 119.432L503.88 140.593C504.714 138.722 505.141 136.733 505.14 134.727V134.727Z" fill="#AFB1B8"/>
<rect x="600.5" y="92.5" width="169" height="91" rx="3.5" stroke="#2196F3"/>
<path d="M656.146 129.103H656.143C653.745 129.103 651.801 130.83 651.801 132.961V132.964C651.801 135.095 653.745 136.823 656.143 136.823H656.146C658.544 136.823 660.488 135.095 660.488 132.964V132.961C660.488 130.83 658.544 129.103 656.146 129.103Z" fill="#2196F3"/>
<path d="M688.195 127.869C688.188 124.909 686.862 122.072 684.507 119.979C682.152 117.886 678.96 116.707 675.63 116.7V116.7C672.298 116.705 669.105 117.884 666.748 119.977C664.392 122.071 663.066 124.908 663.059 127.869V144.192C663.059 144.192 688.192 141.704 688.195 127.872V127.869Z" fill="#2196F3"/>
<path d="M643 149.549C643.006 151.609 643.929 153.583 645.568 155.039C647.206 156.496 649.427 157.317 651.744 157.323C654.061 157.317 656.281 156.496 657.92 155.04C659.558 153.584 660.482 151.611 660.488 149.552V138.194C660.488 138.194 643 139.927 643 149.549ZM651.744 151.584C651.291 151.584 650.849 151.465 650.472 151.241C650.095 151.018 649.802 150.7 649.629 150.328C649.455 149.956 649.41 149.547 649.498 149.152C649.587 148.758 649.805 148.395 650.125 148.111C650.445 147.826 650.853 147.632 651.297 147.554C651.742 147.475 652.202 147.515 652.62 147.669C653.039 147.823 653.396 148.084 653.648 148.419C653.9 148.754 654.034 149.147 654.034 149.549C654.035 149.817 653.977 150.083 653.862 150.331C653.748 150.578 653.579 150.804 653.366 150.993C653.154 151.183 652.901 151.334 652.622 151.436C652.344 151.539 652.046 151.592 651.744 151.592V151.584Z" fill="#2196F3"/>
<path d="M669.418 150.464H667.73V152.207H666.851V147.941H669.629V148.653H667.73V149.755H669.418V150.464ZM673.642 150.171C673.642 150.591 673.568 150.959 673.42 151.275C673.271 151.592 673.058 151.836 672.781 152.008C672.506 152.18 672.189 152.266 671.832 152.266C671.478 152.266 671.163 152.181 670.885 152.011C670.608 151.841 670.393 151.599 670.241 151.284C670.089 150.968 670.011 150.604 670.009 150.194V149.983C670.009 149.563 670.085 149.194 670.235 148.876C670.387 148.556 670.601 148.31 670.877 148.141C671.154 147.969 671.47 147.883 671.826 147.883C672.181 147.883 672.497 147.969 672.772 148.141C673.049 148.31 673.263 148.556 673.414 148.876C673.566 149.194 673.642 149.562 673.642 149.98V150.171ZM672.752 149.977C672.752 149.53 672.672 149.19 672.511 148.958C672.351 148.725 672.123 148.609 671.826 148.609C671.531 148.609 671.303 148.724 671.143 148.955C670.983 149.183 670.902 149.519 670.9 149.963V150.171C670.9 150.606 670.98 150.944 671.14 151.184C671.3 151.425 671.531 151.545 671.832 151.545C672.127 151.545 672.353 151.43 672.511 151.199C672.67 150.967 672.75 150.629 672.752 150.185V149.977ZM676.493 151.088C676.493 150.922 676.434 150.795 676.317 150.707C676.2 150.617 675.989 150.523 675.684 150.426C675.38 150.326 675.138 150.228 674.961 150.133C674.476 149.871 674.234 149.518 674.234 149.075C674.234 148.845 674.299 148.64 674.427 148.46C674.558 148.278 674.745 148.137 674.987 148.035C675.231 147.933 675.505 147.883 675.807 147.883C676.112 147.883 676.383 147.938 676.622 148.05C676.86 148.159 677.045 148.314 677.175 148.516C677.308 148.717 677.375 148.945 677.375 149.201H676.496C676.496 149.006 676.434 148.854 676.311 148.747C676.188 148.638 676.015 148.583 675.793 148.583C675.578 148.583 675.411 148.629 675.292 148.721C675.173 148.81 675.113 148.93 675.113 149.078C675.113 149.217 675.182 149.333 675.321 149.427C675.462 149.52 675.668 149.608 675.939 149.69C676.439 149.841 676.803 150.027 677.032 150.25C677.26 150.473 677.375 150.75 677.375 151.082C677.375 151.451 677.235 151.741 676.956 151.952C676.676 152.161 676.3 152.266 675.828 152.266C675.5 152.266 675.201 152.206 674.931 152.087C674.662 151.966 674.456 151.801 674.313 151.592C674.173 151.383 674.102 151.141 674.102 150.865H674.984C674.984 151.336 675.265 151.571 675.828 151.571C676.037 151.571 676.2 151.529 676.317 151.445C676.434 151.359 676.493 151.24 676.493 151.088ZM681.183 148.653H679.877V152.207H678.998V148.653H677.709V147.941H681.183V148.653ZM684.254 150.358H682.566V151.501H684.547V152.207H681.687V147.941H684.541V148.653H682.566V149.67H684.254V150.358ZM686.641 150.645H685.941V152.207H685.062V147.941H686.647C687.151 147.941 687.54 148.054 687.813 148.278C688.087 148.503 688.223 148.82 688.223 149.23C688.223 149.521 688.16 149.765 688.033 149.96C687.908 150.153 687.717 150.307 687.462 150.423L688.384 152.166V152.207H687.441L686.641 150.645ZM685.941 149.933H686.65C686.871 149.933 687.042 149.878 687.163 149.766C687.284 149.653 687.344 149.498 687.344 149.301C687.344 149.099 687.287 148.941 687.172 148.826C687.058 148.711 686.883 148.653 686.647 148.653H685.941V149.933ZM691.267 150.704V152.207H690.388V147.941H692.052C692.373 147.941 692.654 148 692.896 148.117C693.14 148.234 693.328 148.401 693.459 148.618C693.59 148.833 693.655 149.078 693.655 149.353C693.655 149.771 693.511 150.101 693.224 150.344C692.939 150.584 692.544 150.704 692.038 150.704H691.267ZM691.267 149.992H692.052C692.285 149.992 692.462 149.937 692.583 149.828C692.706 149.719 692.767 149.562 692.767 149.359C692.767 149.15 692.706 148.981 692.583 148.852C692.46 148.724 692.29 148.657 692.073 148.653H691.267V149.992ZM696.828 150.358H695.14V151.501H697.121V152.207H694.261V147.941H697.115V148.653H695.14V149.67H696.828V150.358ZM700.906 148.653H699.599V152.207H698.72V148.653H697.431V147.941H700.906V148.653ZM703.976 150.358H702.289V151.501H704.269V152.207H701.41V147.941H704.263V148.653H702.289V149.67H703.976V150.358ZM706.364 150.645H705.664V152.207H704.785V147.941H706.37C706.874 147.941 707.262 148.054 707.536 148.278C707.809 148.503 707.946 148.82 707.946 149.23C707.946 149.521 707.883 149.765 707.756 149.96C707.631 150.153 707.44 150.307 707.184 150.423L708.107 152.166V152.207H707.164L706.364 150.645ZM705.664 149.933H706.373C706.593 149.933 706.764 149.878 706.885 149.766C707.007 149.653 707.067 149.498 707.067 149.301C707.067 149.099 707.009 148.941 706.894 148.826C706.781 148.711 706.606 148.653 706.37 148.653H705.664V149.933ZM710.829 151.088C710.829 150.922 710.77 150.795 710.653 150.707C710.536 150.617 710.325 150.523 710.02 150.426C709.716 150.326 709.474 150.228 709.297 150.133C708.812 149.871 708.57 149.518 708.57 149.075C708.57 148.845 708.634 148.64 708.763 148.46C708.894 148.278 709.081 148.137 709.323 148.035C709.567 147.933 709.841 147.883 710.143 147.883C710.448 147.883 710.719 147.938 710.958 148.05C711.196 148.159 711.381 148.314 711.511 148.516C711.644 148.717 711.711 148.945 711.711 149.201H710.832C710.832 149.006 710.77 148.854 710.647 148.747C710.524 148.638 710.351 148.583 710.129 148.583C709.914 148.583 709.747 148.629 709.628 148.721C709.508 148.81 709.449 148.93 709.449 149.078C709.449 149.217 709.518 149.333 709.657 149.427C709.798 149.52 710.004 149.608 710.275 149.69C710.775 149.841 711.139 150.027 711.368 150.25C711.596 150.473 711.711 150.75 711.711 151.082C711.711 151.451 711.571 151.741 711.292 151.952C711.012 152.161 710.636 152.266 710.164 152.266C709.836 152.266 709.537 152.206 709.267 152.087C708.998 151.966 708.792 151.801 708.649 151.592C708.508 151.383 708.438 151.141 708.438 150.865H709.32C709.32 151.336 709.601 151.571 710.164 151.571C710.373 151.571 710.536 151.529 710.653 151.445C710.77 151.359 710.829 151.24 710.829 151.088Z" fill="#2196F3"/>
<rect x="800.5" y="92.5" width="169" height="91" rx="3.5" stroke="#AFB1B8"/>
<path d="M858.757 152.735C859.001 153.011 859.13 153.357 859.124 153.712C859.136 153.944 859.091 154.175 858.993 154.388C858.895 154.602 858.745 154.793 858.555 154.946C858.082 155.274 857.496 155.434 856.904 155.397H854V149.205H856.844C857.406 149.171 857.963 149.317 858.42 149.617C858.604 149.758 858.749 149.936 858.845 150.137C858.941 150.338 858.984 150.556 858.972 150.775C858.988 151.117 858.871 151.453 858.641 151.722C858.421 151.968 858.116 152.139 857.776 152.206C858.161 152.27 858.509 152.458 858.757 152.735ZM855.351 151.801H856.567C856.843 151.819 857.117 151.746 857.34 151.595C857.431 151.519 857.502 151.425 857.547 151.32C857.593 151.215 857.611 151.102 857.601 150.99C857.609 150.878 857.591 150.766 857.546 150.661C857.502 150.556 857.432 150.462 857.343 150.385C857.114 150.229 856.831 150.155 856.547 150.176H855.351V151.801ZM857.459 154.175C857.556 154.097 857.633 154 857.683 153.891C857.733 153.782 857.754 153.664 857.746 153.546C857.753 153.426 857.731 153.307 857.68 153.197C857.629 153.087 857.551 152.989 857.452 152.911C857.214 152.749 856.922 152.67 856.626 152.687H855.351V154.39H856.643C856.933 154.405 857.221 154.329 857.459 154.175Z" fill="#AFB1B8"/>
<path d="M864.571 155.397L862.989 152.977H862.394V155.397H861.033V149.205H863.61C864.259 149.164 864.901 149.352 865.403 149.732C865.764 150.068 865.981 150.511 866.016 150.98C866.051 151.45 865.902 151.916 865.595 152.294C865.277 152.627 864.843 152.849 864.366 152.923L866.051 155.397H864.571ZM862.394 152.133H863.507C864.28 152.133 864.667 151.821 864.667 151.196C864.675 151.068 864.653 150.94 864.604 150.821C864.556 150.701 864.48 150.592 864.383 150.5C864.138 150.314 863.824 150.224 863.507 150.249H862.381L862.394 152.133Z" fill="#AFB1B8"/>
<path d="M872.01 154.151H869.298L868.819 155.397H867.392L869.883 149.275H871.425L873.906 155.397H872.479L872.01 154.151ZM871.647 153.213L870.656 150.6L869.665 153.213H871.647Z" fill="#AFB1B8"/>
<path d="M881.322 155.397H879.971L876.942 151.187V155.397H875.594V149.205H876.942L879.971 153.44V149.205H881.322V155.397Z" fill="#AFB1B8"/>
<path d="M889.033 153.915C888.753 154.382 888.328 154.763 887.81 155.007C887.222 155.279 886.57 155.413 885.911 155.397H883.506V149.205H885.911C886.568 149.19 887.22 149.321 887.81 149.587C888.327 149.825 888.754 150.202 889.033 150.666C889.311 151.17 889.456 151.726 889.456 152.291C889.456 152.855 889.311 153.411 889.033 153.915ZM887.487 153.767C887.872 153.355 888.084 152.831 888.084 152.289C888.084 151.747 887.872 151.223 887.487 150.812C887.021 150.439 886.413 150.25 885.795 150.285H884.857V154.293H885.795C886.413 154.328 887.021 154.139 887.487 153.767Z" fill="#AFB1B8"/>
<path d="M872.856 114.767C872.856 114.767 890.294 120.795 889.925 129.518V144.272C889.925 144.272 872.499 138.241 872.862 129.518L872.856 114.767Z" fill="#AFB1B8"/>
<path d="M905.46 140.818C908.754 138.743 912.563 137.457 916.54 137.08V132.461C911.958 134.078 908.071 137.01 905.46 140.818Z" fill="#AFB1B8"/>
<path d="M903.482 142.21C906.177 137.24 910.85 133.405 916.54 131.493V118.185C916.54 118.185 891.705 126.772 892.23 139.194V160.2C892.23 160.2 893.337 159.816 895.078 159.096C895.078 158.425 895.078 157.747 895.157 157.067C895.671 151.3 898.665 145.956 903.482 142.21Z" fill="#AFB1B8"/>
<path d="M901.12 150.013C901.25 148.556 901.541 147.115 901.989 145.712C898.99 148.947 897.173 152.961 896.796 157.191C896.759 157.59 896.739 157.989 896.729 158.4C898.14 157.78 899.782 157.006 901.506 156.096C901.066 154.095 900.936 152.047 901.12 150.013Z" fill="#AFB1B8"/>
<path d="M902.107 150.089C901.942 151.929 902.045 153.781 902.415 155.597C909.2 151.879 916.824 146.135 916.53 139.194V138.589C911.682 139.086 907.147 141.026 903.62 144.112C902.795 146.024 902.285 148.039 902.107 150.089Z" fill="#AFB1B8"/>
<rect x="1000.5" y="92.5" width="169" height="91" rx="3.5" stroke="#AFB1B8"/>
<path d="M1085.42 135.408C1084.98 134.818 1084.77 134.121 1084.82 133.42V130.536C1084.82 129.653 1085.02 128.981 1085.42 128.521C1085.82 128.062 1086.51 127.833 1087.49 127.835C1088.4 127.835 1089.06 128.031 1089.44 128.422C1089.86 128.921 1090.06 129.531 1090.02 130.146V130.824H1088.38V130.138C1088.38 129.913 1088.37 129.688 1088.33 129.466C1088.31 129.314 1088.22 129.173 1088.1 129.067C1087.93 128.952 1087.71 128.897 1087.5 128.912C1087.28 128.897 1087.05 128.956 1086.88 129.076C1086.73 129.193 1086.64 129.348 1086.6 129.516C1086.56 129.751 1086.54 129.99 1086.54 130.228V133.728C1086.51 134.065 1086.59 134.403 1086.75 134.71C1086.83 134.814 1086.94 134.897 1087.08 134.948C1087.21 135 1087.36 135.019 1087.5 135.003C1087.71 135.018 1087.92 134.962 1088.08 134.845C1088.22 134.731 1088.3 134.581 1088.33 134.42C1088.36 134.188 1088.38 133.953 1088.38 133.719V133.009H1090.02V133.657C1090.06 134.299 1089.86 134.936 1089.45 135.47C1089.07 135.898 1088.43 136.112 1087.49 136.112C1086.54 136.112 1085.83 135.883 1085.42 135.408Z" fill="#AFB1B8"/>
<path d="M1092.26 135.438C1091.84 134.989 1091.64 134.335 1091.64 133.469V130.437C1091.64 129.58 1091.84 128.932 1092.26 128.492C1092.67 128.052 1093.36 127.833 1094.34 127.835C1095.3 127.835 1095.99 128.054 1096.4 128.492C1096.82 128.932 1097.03 129.58 1097.03 130.437V133.469C1097.03 134.326 1096.82 134.983 1096.4 135.435C1095.98 135.886 1095.29 136.112 1094.34 136.112C1093.38 136.112 1092.67 135.883 1092.26 135.438ZM1095.1 134.71C1095.25 134.429 1095.32 134.121 1095.3 133.813V130.099C1095.32 129.797 1095.25 129.495 1095.1 129.219C1095.02 129.113 1094.9 129.03 1094.77 128.978C1094.63 128.926 1094.48 128.908 1094.34 128.926C1094.19 128.908 1094.04 128.927 1093.9 128.978C1093.77 129.03 1093.65 129.114 1093.56 129.219C1093.42 129.494 1093.35 129.797 1093.37 130.099V133.83C1093.35 134.139 1093.41 134.447 1093.56 134.728C1093.66 134.822 1093.78 134.898 1093.91 134.95C1094.04 135.002 1094.19 135.029 1094.33 135.029C1094.48 135.029 1094.62 135.002 1094.75 134.95C1094.89 134.898 1095 134.822 1095.1 134.728V134.71Z" fill="#AFB1B8"/>
<path d="M1099 127.924H1100.77L1102.1 133.519L1103.46 127.924H1105.18L1105.35 136H1104.08L1103.94 130.387L1102.63 136H1101.61L1100.25 130.367L1100.13 136H1098.84L1099 127.924Z" fill="#AFB1B8"/>
<path d="M1107.33 127.924H1110.08C1111.67 127.924 1112.46 128.688 1112.46 130.217C1112.46 131.681 1111.63 132.413 1109.96 132.411H1109.02V136H1107.32L1107.33 127.924ZM1109.68 131.375C1109.85 131.394 1110.02 131.38 1110.18 131.336C1110.34 131.292 1110.49 131.219 1110.62 131.12C1110.81 130.847 1110.9 130.527 1110.86 130.208C1110.87 129.962 1110.84 129.715 1110.78 129.475C1110.75 129.395 1110.71 129.319 1110.65 129.253C1110.59 129.187 1110.52 129.132 1110.44 129.091C1110.2 128.993 1109.94 128.949 1109.68 128.962H1109.02V131.375H1109.68Z" fill="#AFB1B8"/>
<path d="M1114.91 127.924H1116.73L1118.61 136H1117.02L1116.65 134.138H1115.02L1114.64 136H1113.04L1114.91 127.924ZM1116.47 133.202L1115.83 129.812L1115.2 133.202H1116.47Z" fill="#AFB1B8"/>
<path d="M1120.12 127.924H1121.31L1123.58 132.531V127.924H1124.99V136H1123.86L1121.57 131.191V136H1120.11L1120.12 127.924Z" fill="#AFB1B8"/>
<path d="M1128.29 132.921L1126.4 127.935H1128L1129.15 131.138L1130.23 127.935H1131.79L1129.93 132.921V136H1128.29V132.921Z" fill="#AFB1B8"/>
<path d="M1088.05 139.532V139.954H1086.66V143.236H1086.08V139.954H1084.69V139.532H1088.05Z" fill="#AFB1B8"/>
<path d="M1092.39 143.236H1091.94C1091.9 143.239 1091.85 143.226 1091.82 143.201C1091.78 143.179 1091.76 143.15 1091.74 143.116L1091.34 142.236H1089.42L1089.02 143.116C1089.01 143.153 1088.99 143.187 1088.96 143.216C1088.92 143.24 1088.88 143.253 1088.83 143.251H1088.38L1090.08 139.547H1090.67L1092.39 143.236ZM1089.58 141.861H1091.18L1090.5 140.353C1090.45 140.239 1090.41 140.123 1090.38 140.004C1090.35 140.075 1090.33 140.142 1090.31 140.201L1090.25 140.356L1089.58 141.861Z" fill="#AFB1B8"/>
<path d="M1095.32 142.872C1095.43 142.877 1095.53 142.877 1095.64 142.872C1095.73 142.864 1095.82 142.849 1095.91 142.828C1096 142.811 1096.08 142.788 1096.16 142.761C1096.23 142.734 1096.31 142.702 1096.38 142.67V141.837H1095.7C1095.69 141.838 1095.67 141.836 1095.66 141.831C1095.64 141.825 1095.63 141.818 1095.61 141.808C1095.6 141.799 1095.59 141.789 1095.59 141.777C1095.58 141.766 1095.58 141.753 1095.58 141.74V141.456H1096.9V142.875C1096.79 142.942 1096.68 143.001 1096.56 143.051C1096.44 143.103 1096.31 143.145 1096.18 143.177C1096.04 143.213 1095.9 143.238 1095.76 143.254C1095.59 143.269 1095.43 143.277 1095.26 143.277C1094.97 143.279 1094.68 143.232 1094.4 143.139C1094.15 143.051 1093.92 142.919 1093.72 142.752C1093.54 142.583 1093.39 142.384 1093.29 142.165C1093.18 141.92 1093.13 141.659 1093.13 141.397C1093.13 141.133 1093.18 140.871 1093.28 140.623C1093.38 140.403 1093.53 140.203 1093.72 140.036C1093.91 139.869 1094.15 139.739 1094.4 139.652C1094.69 139.557 1095 139.51 1095.31 139.514C1095.47 139.514 1095.63 139.524 1095.78 139.546C1095.92 139.566 1096.06 139.597 1096.19 139.64C1096.31 139.679 1096.42 139.728 1096.53 139.787C1096.63 139.845 1096.73 139.909 1096.82 139.98L1096.66 140.209C1096.65 140.23 1096.63 140.247 1096.6 140.26C1096.58 140.272 1096.55 140.279 1096.53 140.279C1096.49 140.278 1096.45 140.268 1096.42 140.25C1096.37 140.227 1096.32 140.197 1096.26 140.162C1096.18 140.123 1096.11 140.09 1096.03 140.062C1095.93 140.027 1095.82 140 1095.72 139.98C1095.57 139.958 1095.43 139.947 1095.28 139.948C1095.06 139.946 1094.84 139.981 1094.63 140.051C1094.44 140.116 1094.27 140.216 1094.13 140.344C1093.99 140.477 1093.88 140.634 1093.81 140.804C1093.66 141.206 1093.66 141.638 1093.81 142.039C1093.89 142.214 1094 142.372 1094.15 142.506C1094.29 142.633 1094.46 142.733 1094.65 142.799C1094.86 142.863 1095.09 142.888 1095.32 142.872Z" fill="#AFB1B8"/>
<path d="M1100.74 142.814H1102.59V143.236H1100.17V139.532H1100.75L1100.74 142.814Z" fill="#AFB1B8"/>
<path d="M1104.52 143.236H1103.94V139.532H1104.52V143.236Z" fill="#AFB1B8"/>
<path d="M1106.68 139.549C1106.72 139.566 1106.75 139.589 1106.77 139.617L1109.25 142.409C1109.25 142.365 1109.25 142.321 1109.25 142.277C1109.25 142.236 1109.25 142.195 1109.25 142.157V139.517H1109.76V143.236H1109.47C1109.42 143.239 1109.38 143.232 1109.34 143.216C1109.31 143.197 1109.28 143.173 1109.25 143.145L1106.77 140.356C1106.77 140.4 1106.77 140.441 1106.77 140.482C1106.77 140.523 1106.77 140.561 1106.77 140.596V143.236H1106.28V139.532H1106.59C1106.62 139.532 1106.65 139.538 1106.68 139.549Z" fill="#AFB1B8"/>
<path d="M1114.04 139.532V139.939H1111.98V141.162H1113.65V141.555H1111.98V142.819H1114.04V143.227H1111.38V139.532H1114.04Z" fill="#AFB1B8"/>
<path d="M1053.16 116.656L1078.96 122.979V145.137L1053.16 138.816V116.656ZM1051.51 114.767V139.893L1080.61 147.029V121.905L1051.51 114.767Z" fill="#AFB1B8"/>
<path d="M1067.1 158.692L1038 151.551V126.427L1067.1 133.566V158.692Z" fill="#AFB1B8"/>
<path d="M1051.99 116.371L1077.45 122.615L1066.62 131.965L1041.16 125.718L1051.99 116.371ZM1051.51 114.767L1038 126.428L1067.1 133.566L1080.61 121.905L1051.51 114.767Z" fill="#AFB1B8"/>
<path d="M1068.74 157.279L1080.61 147.032L1068.74 144.119V157.279Z" fill="#AFB1B8"/>
</svg>
